<?xml version="1.0" standalone="no"?><!DOCTYPE svg PUBLIC "-//W3C//DTD SVG 1.1//EN" "http://www.w3.org/Graphics/SVG/1.1/DTD/svg11.dtd"><svg t="1536995463963" class="icon" style="" viewBox="0 0 1024 1024" version="1.1" xmlns="http://www.w3.org/2000/svg" p-id="1049" xmlns:xlink="http://www.w3.org/1999/xlink" width="100%" height="100%"><defs><style type="text/css"></style></defs><path d="M677.1 249.6c-3.7 81.4-142 218.8-142 218.8S409.7 319 413.4 237.6 479.1 93 552 96.3s128.8 71.9 125.1 153.3zM811.8 643c-81.4 0.8-226.3-129.7-226.3-129.7s142.3-133.4 223.7-134.2c81.4-0.8 148.1 57.6 148.8 130.5 0.7 72.9-64.8 132.6-146.2 133.4zM279.5 379.1c81.5 0 225 132 225 132S361 643 279.5 643C198.1 643 132 583.9 132 511s66.1-131.9 147.5-131.9zM413.3 779.3c-0.3-81.5 131-225.6 131-225.6s132.6 143 132.9 224.5c0.3 81.5-58.5 147.7-131.3 148-72.9 0.3-132.2-65.5-132.6-146.9z" fill="#FBE6AC" p-id="1050"></path><path d="M497.5 481.6c-5.4 0-10.8-2.2-14.7-6.5-1.3-1.5-33.1-36.1-65.4-81.2-44.8-62.6-67.6-113.1-67.6-150 0-89.7 66.2-162.6 147.6-162.6S645 154.3 645 243.9c0 3.4-0.2 7-0.6 10.6-1.1 11-11 19-22 17.8-11-1.1-19-11-17.8-22 0.2-2.2 0.4-4.4 0.4-6.4 0-67.6-48.3-122.6-107.6-122.6s-107.6 55-107.6 122.6c0 58.2 88.3 167.1 122.4 204.1 7.5 8.1 6.9 20.8-1.2 28.3-3.8 3.5-8.6 5.3-13.5 5.3zM497.5 939.3h-0.2c-81.4-0.1-147.5-73.1-147.4-162.8 0-3.4 0.2-6.9 0.6-10.6 1.2-11 11-19 22-17.8 11 1.2 19 11 17.8 22-0.2 2.2-0.4 4.4-0.4 6.4-0.1 67.6 48.1 122.7 107.5 122.8h0.1c59.3 0 107.6-54.9 107.7-122.5 0.1-58.2-88.1-167.2-122.1-204.3-7.5-8.1-6.9-20.8 1.2-28.3s20.8-6.9 28.3 1.2c1.3 1.5 33.1 36.2 65.3 81.3 44.8 62.7 67.4 113.2 67.4 150.1-0.2 89.6-66.5 162.5-147.8 162.5zM762.4 658.7h-0.6c-3.4 0-7-0.2-10.5-0.6-11-1.2-18.9-11-17.8-22 1.2-11 11-18.9 22-17.8 2.2 0.2 4.4 0.4 6.4 0.4h0.5c33 0 63.9-11.4 87.2-32 22.7-20.2 35.3-46.9 35.4-75.2s-12.4-55.2-35-75.5c-23.2-20.9-54.3-32.5-87.4-32.6h-0.2c-58.3 0-167.2 87.8-204.3 121.7-8.2 7.4-20.8 6.9-28.3-1.3-7.4-8.2-6.9-20.8 1.3-28.3 1.5-1.3 36.2-33 81.4-65.1 62.6-44.5 113-67.1 149.9-67.1h0.3c43 0.1 83.5 15.3 114.1 42.8 31.2 28.1 48.2 65.4 48.1 105.3s-17.4 77.1-48.8 105c-30.5 27.3-70.9 42.3-113.7 42.3zM228.1 658.7c-89.4 0-162.2-65.8-162.5-147-0.3-81.4 72.4-147.9 162.1-148.3 3.4 0 7 0.2 10.6 0.5 11 1.1 19 10.9 17.9 21.9s-10.9 19-21.9 17.9c-2.2-0.2-4.4-0.3-6.4-0.3-67.6 0.3-122.5 48.8-122.2 108.1 0.2 59.2 55.1 107.1 122.5 107.1h0.6c58.2-0.2 166.7-89 203.6-123.2 8.1-7.5 20.8-7 28.3 1.1s7 20.8-1.1 28.3c-1.4 1.3-36 33.2-80.9 65.7-62.4 45.1-112.8 68-149.7 68.2h-0.9z" fill="" p-id="1051"></path></svg>