<?xml version="1.0" standalone="no"?><!DOCTYPE svg PUBLIC "-//W3C//DTD SVG 1.1//EN" "http://www.w3.org/Graphics/SVG/1.1/DTD/svg11.dtd"><svg t="1536669739757" class="icon" style="" viewBox="0 0 1024 1024" version="1.1" xmlns="http://www.w3.org/2000/svg" p-id="4184" xmlns:xlink="http://www.w3.org/1999/xlink" width="100%" height="100%"><defs><style type="text/css"></style></defs><path d="M739.29697 76.929293H284.832323C240.355556 76.929293 204.282828 113.00202 204.282828 157.478788v709.171717c0 44.476768 36.072727 80.549495 80.549495 80.549495h454.464647c44.476768 0 80.549495-36.072727 80.549495-80.549495V157.478788c-0.129293-44.476768-36.20202-80.549495-80.549495-80.549495zM582.206061 854.367677c0 17.713131-14.351515 32.064646-32.064647 32.064646h-76.024242c-17.713131 0-32.064646-14.351515-32.064647-32.064646v-0.387879c0-17.713131 14.351515-32.064646 32.064647-32.064646h76.024242c17.713131 0 32.064646 14.351515 32.064647 32.064646v0.387879z m141.834343-103.434344c0 3.232323-2.585859 5.818182-5.818182 5.818182h-412.444444c-3.232323 0-5.818182-2.585859-5.818182-5.818182V216.177778c0-3.232323 2.585859-5.818182 5.818182-5.818182h412.315151c3.232323 0 5.818182 2.585859 5.818182 5.818182v534.755555z" fill="#FFFFFF" p-id="4185"></path></svg>