<?xml version="1.0" standalone="no"?><!DOCTYPE svg PUBLIC "-//W3C//DTD SVG 1.1//EN" "http://www.w3.org/Graphics/SVG/1.1/DTD/svg11.dtd"><svg t="1536995731368" class="icon" style="" viewBox="0 0 1024 1024" version="1.1" xmlns="http://www.w3.org/2000/svg" p-id="1450" xmlns:xlink="http://www.w3.org/1999/xlink" width="100%" height="100%"><defs><style type="text/css"></style></defs><path d="M722.4 197.4h-5.3C704.4 157 669 128 627.4 128s-77 29-89.8 69.4H331.1c-79.9 0-145.2 70.7-145.2 157v401.2c0 86.4 65.3 157 145.2 157h391.4c79.9 0 145.2-70.7 145.2-157V354.4c0-86.3-65.4-157-145.3-157z" fill="#CDF7F3" p-id="1451"></path><path d="M667.8 932.7h-387c-90.2 0-163.6-78-163.6-173.8v-99.3c0-11 9-20 20-20s20 9 20 20v99.3c0 73.8 55.4 133.8 123.6 133.8h387c68.1 0 123.6-60 123.6-133.8v-393c0-73.8-55.4-133.8-123.6-133.8H648l-4.4-13.9c-10.3-32.3-38.3-54.1-69.7-54.1s-59.4 21.7-69.7 54.1l-4.4 13.9H280.9c-68.1 0-123.6 60-123.6 133.8v45.7c0 11-9 20-20 20s-20-9-20-20v-45.7c0-95.9 73.4-173.8 163.6-173.8h190.5c18.8-41.2 58.4-68 102.5-68 44.2 0 83.8 26.9 102.6 68.2 86.2 4.8 155 80.8 155 173.6v393c-0.1 95.8-73.5 173.8-163.7 173.8z" fill="" p-id="1452"></path><path d="M137.3 527.2c-11 0-20-9-20-20v-95.6c0-11 9-20 20-20s20 9 20 20v95.6c0 11-9 20-20 20z" fill="" p-id="1453"></path><path d="M136.4 351.8h681.4v40H136.4z" fill="" p-id="1454"></path><path d="M413.8 626.4a142.8 142.7 0 1 0 285.6 0 142.8 142.7 0 1 0-285.6 0Z" fill="#FFFFFF" p-id="1455"></path><path d="M556.6 789.1c-89.7 0-162.8-73-162.8-162.7 0-89.7 73-162.7 162.8-162.7s162.8 73 162.8 162.7c0 89.7-73.1 162.7-162.8 162.7z m0-285.5c-67.7 0-122.8 55.1-122.8 122.7S488.9 749 556.6 749s122.8-55 122.8-122.6-55.1-122.8-122.8-122.8z" fill="" p-id="1456"></path><path d="M515.6 719.6c-3.3 0-6.7-0.8-9.7-2.5-32.8-18.4-53.2-53.1-53.2-90.7 0-24.3 8.5-47.9 24.1-66.5 7.1-8.5 19.7-9.6 28.2-2.6 8.5 7.1 9.6 19.7 2.6 28.2-9.5 11.4-14.8 25.9-14.8 40.9 0 23.1 12.6 44.5 32.8 55.8 9.6 5.4 13.1 17.6 7.7 27.2-3.8 6.5-10.6 10.2-17.7 10.2zM529.8 561.5c-0.7 0-1.3 0-2-0.1s-1.3-0.2-2-0.3c-0.6-0.1-1.3-0.3-1.9-0.5-0.6-0.2-1.2-0.4-1.8-0.7-0.6-0.3-1.2-0.5-1.8-0.8-0.6-0.3-1.1-0.7-1.7-1-0.5-0.4-1.1-0.8-1.6-1.2-0.5-0.4-1-0.9-1.5-1.3s-0.9-1-1.3-1.5-0.8-1-1.2-1.6c-0.4-0.5-0.7-1.1-1-1.7-0.3-0.6-0.6-1.2-0.8-1.8-0.3-0.6-0.5-1.2-0.7-1.8s-0.3-1.3-0.5-1.9c-0.1-0.6-0.2-1.3-0.3-1.9-0.1-0.7-0.1-1.3-0.1-2s0-1.3 0.1-2 0.2-1.3 0.3-1.9c0.1-0.6 0.3-1.3 0.5-1.9s0.4-1.2 0.7-1.8c0.3-0.6 0.5-1.2 0.8-1.8 0.3-0.6 0.6-1.2 1-1.7s0.8-1.1 1.2-1.6c0.4-0.5 0.9-1 1.3-1.5s1-0.9 1.5-1.3 1-0.8 1.6-1.2c0.5-0.4 1.1-0.7 1.7-1 0.6-0.3 1.2-0.6 1.8-0.8 0.6-0.3 1.2-0.5 1.8-0.7 0.6-0.2 1.3-0.4 1.9-0.5 0.6-0.1 1.3-0.2 1.9-0.3 1.3-0.1 2.6-0.1 3.9 0 0.7 0.1 1.3 0.2 1.9 0.3 0.6 0.1 1.3 0.3 1.9 0.5 0.6 0.2 1.2 0.4 1.8 0.7 0.6 0.3 1.2 0.5 1.8 0.8 0.6 0.3 1.1 0.7 1.7 1 0.5 0.4 1.1 0.8 1.6 1.2 0.5 0.4 1 0.9 1.5 1.3 0.5 0.5 0.9 1 1.3 1.5s0.8 1 1.2 1.6 0.7 1.1 1 1.7c0.3 0.6 0.6 1.2 0.8 1.8 0.3 0.6 0.5 1.2 0.7 1.8 0.2 0.6 0.3 1.3 0.5 1.9 0.1 0.6 0.2 1.3 0.3 1.9 0.1 0.6 0.1 1.3 0.1 2 0 0.6 0 1.3-0.1 2-0.1 0.6-0.2 1.3-0.3 1.9-0.1 0.6-0.3 1.3-0.5 1.9-0.2 0.6-0.4 1.2-0.7 1.8-0.3 0.6-0.5 1.2-0.8 1.8-0.3 0.6-0.6 1.1-1 1.7s-0.8 1.1-1.2 1.6c-0.4 0.5-0.9 1-1.3 1.5-0.5 0.5-1 0.9-1.5 1.3s-1 0.8-1.6 1.2c-0.5 0.4-1.1 0.7-1.7 1-0.6 0.3-1.2 0.6-1.8 0.8-0.6 0.3-1.2 0.5-1.8 0.7-0.6 0.2-1.3 0.4-1.9 0.5-0.6 0.1-1.3 0.2-1.9 0.3-0.5 0.1-1.2 0.1-1.8 0.1z" fill="" p-id="1457"></path></svg>