<?xml version="1.0" standalone="no"?><!DOCTYPE svg PUBLIC "-//W3C//DTD SVG 1.1//EN" "http://www.w3.org/Graphics/SVG/1.1/DTD/svg11.dtd"><svg t="1536995722570" class="icon" style="" viewBox="0 0 1024 1024" version="1.1" xmlns="http://www.w3.org/2000/svg" p-id="1316" xmlns:xlink="http://www.w3.org/1999/xlink" width="100%" height="100%"><defs><style type="text/css"></style></defs><path d="M752.2 903.6L524.9 784.1c-6.9-3.6-15.1-3.6-22 0L275.5 903.6c-17.4 9.1-37.6-5.6-34.3-24.9l43.4-253.1c1.3-7.7-1.2-15.5-6.8-20.9L93.9 425.3c-14-13.7-6.3-37.5 13.1-40.3l254.2-37c7.7-1.1 14.4-6 17.8-12.9l113.7-230.3c8.7-17.6 33.7-17.6 42.4 0l113.7 230.3c3.4 7 10.1 11.8 17.8 12.9l254.1 37c19.4 2.8 27.2 26.7 13.1 40.3L749.9 604.6c-5.6 5.4-8.1 13.3-6.8 20.9l43.4 253.1c3.3 19.4-16.9 34.1-34.3 25z" fill="#01FFE0" p-id="1317"></path><path d="M264.5 926.4c-9 0-18-2.8-25.6-8.4-13.5-9.8-20.2-26.2-17.4-42.7l43.4-253.1c0.2-1.2-0.2-2.4-1.1-3.2L79.9 439.6c-12-11.7-16.2-28.8-11-44.8 5.2-15.9 18.7-27.3 35.2-29.7l254.2-36.9c1.2-0.2 2.2-0.9 2.8-2L474.7 95.9c7.4-15 22.4-24.3 39.1-24.3 16.7 0 31.7 9.3 39.1 24.3l113.7 230.3c0.5 1.1 1.6 1.8 2.8 2l254.2 36.9c16.6 2.4 30.1 13.8 35.2 29.7s0.9 33.1-11 44.8L763.9 618.9c-0.9 0.8-1.3 2-1.1 3.2l43.4 253.1c2.8 16.5-3.8 32.9-17.4 42.7-13.5 9.8-31.2 11.1-46 3.3L515.6 801.8c-1.1-0.6-2.3-0.6-3.4 0L284.8 921.3c-6.4 3.4-13.4 5.1-20.3 5.1z m249.4-814.8c-2.3 0-3 1.5-3.3 2L396.9 344c-6.4 12.9-18.6 21.8-32.9 23.9l-254.2 36.9c-0.6 0.1-2.2 0.3-3 2.5-0.7 2.2 0.5 3.4 0.9 3.7l183.9 179.3c10.3 10 15 24.5 12.6 38.6L260.8 882c-0.1 0.6-0.4 2.2 1.5 3.6 1.8 1.3 3.4 0.5 3.9 0.3l227.3-119.5c12.7-6.7 27.9-6.7 40.6 0l227.3 119.5c0.5 0.3 2 1.1 3.9-0.3 1.8-1.3 1.5-3 1.5-3.6l-43.4-253.1c-2.4-14.2 2.3-28.6 12.6-38.6L919.9 411c0.4-0.4 1.6-1.6 0.9-3.7-0.7-2.2-2.4-2.4-3-2.5l-254.2-36.9c-14.2-2.1-26.5-11-32.9-23.9L517.1 113.6c-0.2-0.5-1-2-3.2-2z" fill="#01D7BF" p-id="1318"></path><path d="M332.3 822.7c-7.2 0-14.2-3.9-17.8-10.8-5.1-9.8-1.3-21.9 8.5-27l147.5-76.6c9.8-5.1 21.9-1.3 27 8.5 5.1 9.8 1.3 21.9-8.5 27l-147.5 76.6c-2.9 1.6-6.1 2.3-9.2 2.3z" fill="#FFFFFF" p-id="1319"></path><path d="M528 703.7m-23.3 0a23.3 23.3 0 1 0 46.6 0 23.3 23.3 0 1 0-46.6 0Z" fill="#FFFFFF" p-id="1320"></path></svg>